<?xml version="1.0" encoding="UTF-8" standalone="no"?>
<!-- Created with Inkscape (http://www.inkscape.org/) -->

<svg
   xmlns:dc="http://purl.org/dc/elements/1.1/"
   xmlns:cc="http://creativecommons.org/ns#"
   xmlns:rdf="http://www.w3.org/1999/02/22-rdf-syntax-ns#"
   xmlns:svg="http://www.w3.org/2000/svg"
   xmlns="http://www.w3.org/2000/svg"
   xmlns:sodipodi="http://sodipodi.sourceforge.net/DTD/sodipodi-0.dtd"
   xmlns:inkscape="http://www.inkscape.org/namespaces/inkscape"
   width="310"
   height="70"
   viewBox="0 0 82.020831 18.520834"
   version="1.1"
   id="svg8"
   inkscape:version="0.92.4 (5da689c313, 2019-01-14)"
   sodipodi:docname="dotpyc.svg">
  <defs
     id="defs2" />
  <sodipodi:namedview
     id="base"
     pagecolor="#ffffff"
     bordercolor="#666666"
     borderopacity="1.0"
     inkscape:pageopacity="0.0"
     inkscape:pageshadow="2"
     inkscape:zoom="2.8"
     inkscape:cx="211.65016"
     inkscape:cy="38.342309"
     inkscape:document-units="mm"
     inkscape:current-layer="layer1"
     showgrid="false"
     units="px"
     inkscape:window-width="1920"
     inkscape:window-height="1012"
     inkscape:window-x="0"
     inkscape:window-y="32"
     inkscape:window-maximized="1" />
  <metadata
     id="metadata5">
    <rdf:RDF>
      <cc:Work
         rdf:about="">
        <dc:format>image/svg+xml</dc:format>
        <dc:type
           rdf:resource="http://purl.org/dc/dcmitype/StillImage" />
        <dc:title></dc:title>
      </cc:Work>
    </rdf:RDF>
  </metadata>
  <g
     inkscape:label="Camada 1"
     inkscape:groupmode="layer"
     id="layer1"
     transform="translate(0,-278.47913)">
    <g
       id="Layer1000"
       transform="matrix(0.26458333,0,0,0.26458333,106.03754,81.803092)" />
    <g
       id="Layer1002"
       transform="matrix(0.26458333,0,0,0.26458333,106.03754,81.803092)" />
    <g
       id="g924">
      <g
         transform="matrix(0.628808,0,0,0.628808,-17.791872,235.81709)"
         id="Layer1001">
        <path
           inkscape:connector-curvature="0"
           id="path835"
           style="fill:#000000;fill-rule:evenodd"
           d="m 65.1819,89.8007 c -7.7675,0 -9.9526,-10.0468 -3.5283,-13.5561 1.557,-0.8499 2.4996,-0.7689 4.1652,-0.7689 6.1621,0 9.7001,10.002 2.2328,13.6931 -0.763,0.3771 -1.7376,0.6319 -2.8697,0.6319 z M 54.5178,82.1606 v 1.1144 c 0,4.9869 4.8814,9.8684 9.8683,9.8684 3.6629,0 4.9828,-0.4514 7.6181,-2.5688 1.0847,-0.8721 0.4416,-0.2934 1.2596,-1.2872 4.2383,-5.1495 2.946,-12.89 -3.8353,-16.3071 -3.8734,-1.9523 -8.7427,-0.8321 -11.7116,2.0337 l -0.6148,0.6585 c -1.4778,1.5499 -2.5843,4.2248 -2.5843,6.4881 z" />
        <path
           inkscape:connector-curvature="0"
           id="path837"
           style="fill:#000000;fill-rule:evenodd"
           d="m 33.0301,75.794 h 8.4358 c 8.9668,0 7.7886,13.5295 0.6369,13.5295 h -5.8894 v -8.277 h -3.1833 v 11.6192 h 9.0727 c 5.4895,0 9.5499,-4.2996 9.5499,-9.3907 0,-3.6106 -0.4406,-5.0305 -2.6565,-7.6895 -0.5546,-0.6661 -0.3826,-0.5687 -1.1159,-1.1125 -1.3399,-0.9936 -3.2741,-1.8623 -5.1409,-1.8623 h -9.7093 z" />
        <path
           inkscape:connector-curvature="0"
           id="path839"
           style="fill:#000000;fill-rule:evenodd"
           d="m 135.2156,82.4789 c 0,3.2993 1.3491,5.4884 2.8389,7.3485 0.2643,0.3297 0.3547,0.3773 0.6617,0.6111 1.0633,0.8093 0.5736,0.6409 2.2342,1.5865 1.1723,0.6674 2.6157,1.0353 4.1065,1.1184 h 1.3156 c 1.6126,-0.0884 3.2036,-0.502 4.4942,-1.2209 1.008,-0.5621 2.5437,-1.722 3.131,-2.599 l -2.2644,-2.3518 c -1.4432,0.9454 -1.9653,2.829 -6.1715,2.829 -1.4853,0 -2.5911,-0.4625 -3.556,-1.0592 -4.2158,-2.6082 -4.7281,-8.8671 -0.2232,-12.1106 2.6208,-1.8867 6.2019,-1.5174 8.6945,0.4555 0.7311,0.5789 0.6208,0.4892 1.1331,1.2543 l 2.3875,-2.3119 v -0.0912 c -3.3235,-4.7852 -13.4132,-6.3448 -17.7222,2.1898 -0.5211,1.0326 -1.0599,2.8825 -1.0599,4.3515 z" />
        <path
           inkscape:connector-curvature="0"
           id="path841"
           style="fill:#000000;fill-rule:evenodd"
           d="m 97.6524,75.794 h 10.1868 c 2.6137,0 3.3029,3.178 1.7124,4.578 -0.4767,0.4194 -1.3276,0.6745 -2.1899,0.6745 h -9.7093 v 11.6192 h 3.3421 v -8.4359 c 2.763,0 7.2566,0.3493 9.3285,-0.5399 2.2794,-0.9777 4.252,-4.296 2.95,-7.4406 -0.781,-1.8863 -2.7968,-3.6386 -4.9567,-3.6386 H 97.6524 Z" />
        <path
           inkscape:connector-curvature="0"
           id="path843"
           style="fill:#000000;fill-rule:evenodd"
           d="m 123.7557,82.32 v 10.3457 h 3.3423 v -9.2316 c 0,-0.8071 3.7204,-5.6741 4.4273,-6.7148 0.3262,-0.4805 0.5395,-0.8503 0.8926,-1.3355 0.4038,-0.5544 1.706,-2.2605 1.8431,-2.7731 h -3.9793 c -0.1485,0.5557 -2.8926,4.3165 -3.2752,4.842 -0.3164,0.4346 -0.4553,0.7047 -0.7712,1.139 -0.4346,0.5975 -2.4796,3.3986 -2.4796,3.7283 z" />
        <path
           inkscape:connector-curvature="0"
           id="path845"
           style="fill:#000000;fill-rule:evenodd"
           d="m 78.3932,75.794 h 16.553 v -3.1833 h -16.553 z" />
        <path
           inkscape:connector-curvature="0"
           id="path847"
           style="fill:#000000;fill-rule:evenodd"
           d="m 85.078,92.6657 h 3.1833 V 78.8184 H 85.078 Z" />
        <path
           inkscape:connector-curvature="0"
           id="path849"
           style="fill:#000000;fill-rule:evenodd"
           d="m 119.4583,77.0675 h 3.9793 c -0.2455,-0.918 -2.6201,-3.5388 -2.8652,-4.4568 h -3.9791 c 0.2185,0.8178 2.6853,3.7843 2.865,4.4568 z" />
      </g>
      <rect
         y="278.61087"
         x="0.13174693"
         height="18.257343"
         width="81.757339"
         id="rect893"
         style="opacity:1;fill:none;fill-opacity:1;fill-rule:evenodd;stroke:none;stroke-width:0.26348928;stroke-miterlimit:4;stroke-dasharray:none;stroke-dashoffset:0;stroke-opacity:1" />
    </g>
  </g>
</svg>
